<svg width="45" height="45" viewBox="0 0 45 45" fill="none" xmlns="http://www.w3.org/2000/svg">
<path d="M22.5 45C34.9264 45 45 34.9264 45 22.5C45 10.0736 34.9264 0 22.5 0C10.0736 0 0 10.0736 0 22.5C0 34.9264 10.0736 45 22.5 45Z" fill="white"/>
<path d="M23.5607 7.93939C22.9749 7.3536 22.0251 7.3536 21.4393 7.93939L11.8934 17.4853C11.3076 18.0711 11.3076 19.0209 11.8934 19.6067C12.4792 20.1924 13.4289 20.1924 14.0147 19.6067L22.5 11.1214L30.9853 19.6067C31.5711 20.1924 32.5208 20.1924 33.1066 19.6067C33.6924 19.0209 33.6924 18.0711 33.1066 17.4853L23.5607 7.93939ZM24 37.8L24 9.00005L21 9.00005L21 37.8L24 37.8Z" fill="#6447AF"/>
</svg>
